<svg xmlns="http://www.w3.org/2000/svg" xmlns:xlink="http://www.w3.org/1999/xlink" width="500" zoomAndPan="magnify" viewBox="0 0 375 374.999991" height="500" preserveAspectRatio="xMidYMid meet" version="1.0"><defs><clipPath id="c74fbb2334"><path d="M 32.972656 32.972656 L 342.722656 32.972656 L 342.722656 342.722656 L 32.972656 342.722656 Z M 32.972656 32.972656 " clip-rule="nonzero"/></clipPath></defs><g clip-path="url(#c74fbb2334)"><path fill="#1a72e8" d="M 187.867188 32.972656 C 102.246094 32.972656 32.972656 102.324219 32.972656 187.945312 C 32.972656 273.570312 102.246094 342.921875 187.867188 342.921875 C 273.492188 342.921875 342.921875 273.570312 342.921875 187.945312 C 342.921875 102.324219 273.492188 32.972656 187.867188 32.972656 Z M 187.945312 311.925781 C 119.449219 311.925781 63.964844 256.445312 63.964844 187.945312 C 63.964844 119.449219 119.449219 63.964844 187.945312 63.964844 C 256.445312 63.964844 311.925781 119.449219 311.925781 187.945312 C 311.925781 256.445312 256.445312 311.925781 187.945312 311.925781 Z M 187.945312 311.925781 " fill-opacity="1" fill-rule="nonzero"/></g><path fill="#1a72e8" d="M 195.695312 110.457031 L 172.449219 110.457031 L 172.449219 203.445312 L 253.734375 252.261719 L 265.433594 233.199219 L 195.695312 191.820312 Z M 195.695312 110.457031 " fill-opacity="1" fill-rule="nonzero"/></svg>