<svg xmlns="http://www.w3.org/2000/svg" xmlns:xlink="http://www.w3.org/1999/xlink" width="500" zoomAndPan="magnify" viewBox="0 0 375 374.999991" height="500" preserveAspectRatio="xMidYMid meet" version="1.0"><defs><clipPath id="e9e6916840"><path d="M 54.652344 150 L 325.402344 150 L 325.402344 337.351562 L 54.652344 337.351562 Z M 54.652344 150 " clip-rule="nonzero"/></clipPath><clipPath id="54c25e3d15"><path d="M 128 53.851562 L 252 53.851562 L 252 177 L 128 177 Z M 128 53.851562 " clip-rule="nonzero"/></clipPath></defs><g clip-path="url(#e9e6916840)"><path fill="#1a72e8" d="M 290.363281 150.269531 L 261.289062 150.269531 C 257.738281 157.433594 253.109375 164.089844 247.558594 169.789062 L 290.363281 169.789062 C 298.722656 169.789062 305.527344 176.597656 305.527344 184.953125 L 305.527344 302.714844 C 305.527344 311.074219 298.722656 317.878906 290.363281 317.878906 L 89.46875 317.878906 C 81.113281 317.878906 74.304688 311.074219 74.304688 302.714844 L 74.304688 184.984375 C 74.304688 176.625 81.113281 169.820312 89.46875 169.820312 L 132.277344 169.820312 C 126.722656 164.089844 122.1875 157.460938 118.632812 150.296875 L 89.46875 150.296875 C 70.304688 150.296875 54.753906 165.941406 54.753906 185.015625 L 54.753906 302.773438 C 54.753906 321.847656 70.277344 337.492188 89.46875 337.492188 L 290.363281 337.492188 C 309.527344 337.492188 325.082031 321.847656 325.082031 302.773438 L 325.082031 184.984375 C 325.050781 165.910156 309.527344 150.269531 290.363281 150.269531 Z M 290.363281 150.269531 " fill-opacity="1" fill-rule="nonzero"/></g><path fill="#1a72e8" d="M 97.351562 280.089844 L 97.351562 292.058594 C 97.351562 293.582031 98.574219 294.804688 100.097656 294.804688 L 181.261719 294.804688 C 182.78125 294.804688 184.007812 293.582031 184.007812 292.058594 L 184.007812 280.089844 C 184.007812 265.640625 172.277344 253.910156 157.828125 253.910156 L 123.53125 253.910156 C 109.050781 253.910156 97.351562 265.640625 97.351562 280.089844 Z M 97.351562 280.089844 " fill-opacity="1" fill-rule="nonzero"/><path fill="#1a72e8" d="M 166.8125 219.042969 C 166.8125 204.597656 155.113281 192.894531 140.664062 192.894531 C 126.214844 192.894531 114.515625 204.597656 114.515625 219.042969 C 114.515625 233.492188 126.214844 245.191406 140.664062 245.191406 C 155.113281 245.191406 166.8125 233.492188 166.8125 219.042969 Z M 166.8125 219.042969 " fill-opacity="1" fill-rule="nonzero"/><path fill="#1a72e8" d="M 282.515625 203.253906 C 282.515625 197.878906 278.15625 193.523438 272.78125 193.523438 L 212.035156 193.523438 C 206.664062 193.523438 202.304688 197.878906 202.304688 203.253906 C 202.304688 208.625 206.664062 212.984375 212.035156 212.984375 L 272.753906 212.984375 C 278.15625 212.984375 282.515625 208.625 282.515625 203.253906 Z M 282.515625 203.253906 " fill-opacity="1" fill-rule="nonzero"/><path fill="#1a72e8" d="M 272.753906 234.117188 L 212.035156 234.117188 C 206.664062 234.117188 202.304688 238.476562 202.304688 243.851562 C 202.304688 249.222656 206.664062 253.582031 212.035156 253.582031 L 272.753906 253.582031 C 278.125 253.582031 282.484375 249.222656 282.484375 243.851562 C 282.484375 238.476562 278.15625 234.117188 272.753906 234.117188 Z M 272.753906 234.117188 " fill-opacity="1" fill-rule="nonzero"/><path fill="#1a72e8" d="M 272.753906 274.714844 L 212.035156 274.714844 C 206.664062 274.714844 202.304688 279.074219 202.304688 284.445312 C 202.304688 289.820312 206.664062 294.179688 212.035156 294.179688 L 272.753906 294.179688 C 278.125 294.179688 282.484375 289.820312 282.484375 284.445312 C 282.515625 279.074219 278.15625 274.714844 272.753906 274.714844 Z M 272.753906 274.714844 " fill-opacity="1" fill-rule="nonzero"/><g clip-path="url(#54c25e3d15)"><path fill="#1a72e8" d="M 189.917969 176.507812 C 223.796875 176.507812 251.230469 149.042969 251.230469 115.195312 C 251.261719 81.3125 223.796875 53.851562 189.917969 53.851562 C 156.035156 53.851562 128.605469 81.3125 128.605469 115.164062 C 128.605469 149.042969 156.066406 176.507812 189.917969 176.507812 Z M 159.976562 108 C 163.378906 104.835938 168.722656 105.015625 171.886719 108.417969 L 183.171875 120.535156 L 207.945312 93.941406 C 211.109375 90.539062 216.453125 90.359375 219.859375 93.523438 C 223.261719 96.6875 223.441406 102.03125 220.273438 105.433594 L 189.351562 138.65625 C 187.769531 140.359375 185.527344 141.34375 183.199219 141.34375 C 180.871094 141.34375 178.632812 140.359375 177.023438 138.65625 L 159.558594 119.910156 C 156.394531 116.507812 156.574219 111.164062 159.976562 108 Z M 159.976562 108 " fill-opacity="1" fill-rule="nonzero"/></g></svg>