<svg xmlns="http://www.w3.org/2000/svg" xmlns:xlink="http://www.w3.org/1999/xlink" width="500" zoomAndPan="magnify" viewBox="0 0 375 374.999991" height="500" preserveAspectRatio="xMidYMid meet" version="1.0"><defs><clipPath id="7792238b73"><path d="M 44 16.113281 L 328 16.113281 L 328 355.863281 L 44 355.863281 Z M 44 16.113281 " clip-rule="nonzero"/></clipPath></defs><g clip-path="url(#7792238b73)"><path fill="#1a72e8" d="M 299.515625 143.640625 L 271.175781 143.640625 L 271.175781 86.960938 C 271.175781 47.828125 239.457031 16.113281 200.324219 16.113281 L 171.988281 16.113281 C 132.851562 16.113281 101.136719 47.828125 101.136719 86.960938 L 101.136719 143.640625 L 72.796875 143.640625 C 57.214844 143.640625 44.457031 156.402344 44.457031 171.980469 L 44.457031 327.851562 C 44.457031 343.433594 57.214844 356.191406 72.796875 356.191406 L 299.515625 356.191406 C 315.097656 356.191406 327.855469 343.433594 327.855469 327.851562 L 327.855469 171.980469 C 327.855469 156.402344 315.097656 143.640625 299.515625 143.640625 Z M 200.324219 253.070312 L 200.324219 299.511719 L 171.988281 299.511719 L 171.988281 253.070312 C 163.546875 248.171875 157.816406 239.121094 157.816406 228.660156 C 157.816406 213.023438 170.503906 200.324219 186.15625 200.324219 C 201.808594 200.324219 214.496094 213.023438 214.496094 228.660156 C 214.496094 239.121094 208.765625 248.171875 200.324219 253.070312 Z M 242.835938 143.640625 L 129.476562 143.640625 L 129.476562 86.960938 C 129.476562 63.492188 148.519531 44.453125 171.988281 44.453125 L 200.324219 44.453125 C 223.792969 44.453125 242.835938 63.492188 242.835938 86.960938 Z M 242.835938 143.640625 " fill-opacity="1" fill-rule="nonzero"/></g></svg>