<svg xmlns="http://www.w3.org/2000/svg" xmlns:xlink="http://www.w3.org/1999/xlink" width="500" zoomAndPan="magnify" viewBox="0 0 375 374.999991" height="500" preserveAspectRatio="xMidYMid meet" version="1.0"><defs><clipPath id="e460e7069e"><path d="M 193 126 L 350.730469 126 L 350.730469 326 L 193 326 Z M 193 126 " clip-rule="nonzero"/></clipPath><clipPath id="5b7fa48751"><path d="M 24.480469 126 L 182 126 L 182 326 L 24.480469 326 Z M 24.480469 126 " clip-rule="nonzero"/></clipPath><clipPath id="a3027f83a5"><path d="M 78 17.949219 L 134 17.949219 L 134 85 L 78 85 Z M 78 17.949219 " clip-rule="nonzero"/></clipPath><clipPath id="095b100e92"><path d="M 247 17.949219 L 303 17.949219 L 303 85 L 247 85 Z M 247 17.949219 " clip-rule="nonzero"/></clipPath><clipPath id="b7a6627b7d"><path d="M 24.480469 271 L 67 271 L 67 302 L 24.480469 302 Z M 24.480469 271 " clip-rule="nonzero"/></clipPath><clipPath id="3e8853df1a"><path d="M 308 271 L 350.730469 271 L 350.730469 302 L 308 302 Z M 308 271 " clip-rule="nonzero"/></clipPath></defs><g clip-path="url(#e460e7069e)"><path fill="#1a72e8" d="M 350.496094 138.671875 C 350.496094 139.457031 350.441406 140.242188 350.257812 141.027344 L 332.023438 232.800781 C 331.175781 237.089844 328.761719 240.769531 325.441406 243.367188 C 325.441406 243.367188 281.304688 277.722656 266.9375 289.617188 C 263.25 292.695312 247.851562 302.898438 247.851562 317.511719 L 247.851562 325.84375 L 193.511719 325.84375 L 193.511719 283.394531 C 193.511719 255.859375 205.402344 241.070312 218.144531 231.953125 C 231.242188 222.472656 271.15625 195.179688 271.15625 195.179688 C 273.148438 193.792969 275.507812 193.007812 278.039062 193.007812 C 284.683594 193.007812 290.113281 198.441406 290.113281 205.082031 C 290.113281 209.671875 287.996094 212.386719 284.984375 214.921875 L 250.144531 242.632812 C 248.636719 243.78125 247.851562 245.589844 247.851562 247.34375 C 247.851562 250.664062 250.507812 253.382812 253.894531 253.382812 C 255.21875 253.382812 256.550781 252.964844 257.636719 252.054688 C 257.636719 252.054688 284.6875 230.796875 293.5625 223.496094 C 295.675781 221.804688 297.851562 219.085938 299.054688 216.792969 C 301.65625 211.964844 304.128906 202.96875 327.011719 134.796875 C 328.644531 130.023438 333.109375 126.585938 338.421875 126.585938 C 345.066406 126.585938 350.496094 132.015625 350.496094 138.660156 Z M 350.496094 138.671875 " fill-opacity="1" fill-rule="nonzero"/></g><g clip-path="url(#5b7fa48751)"><path fill="#1a72e8" d="M 181.4375 283.398438 L 181.4375 325.847656 L 127.09375 325.847656 L 127.09375 317.515625 C 127.09375 302.902344 111.695312 292.699219 108.011719 289.621094 C 93.644531 277.730469 49.503906 243.375 49.503906 243.375 C 46.183594 240.773438 43.773438 237.09375 42.925781 232.808594 L 24.6875 141.03125 C 24.507812 140.25 24.449219 139.464844 24.449219 138.679688 C 24.449219 132.035156 29.882812 126.601562 36.527344 126.601562 C 41.839844 126.601562 46.308594 130.042969 47.933594 134.816406 C 70.816406 202.984375 73.292969 211.976562 75.890625 216.8125 C 77.097656 219.113281 79.277344 221.824219 81.386719 223.511719 C 90.257812 230.816406 117.308594 252.070312 117.308594 252.070312 C 118.398438 252.976562 119.726562 253.402344 121.054688 253.402344 C 124.4375 253.402344 127.09375 250.683594 127.09375 247.363281 C 127.09375 245.609375 126.308594 243.800781 124.800781 242.652344 L 89.964844 214.941406 C 86.941406 212.40625 84.832031 209.6875 84.832031 205.101562 C 84.832031 198.457031 90.265625 193.027344 96.910156 193.027344 C 99.445312 193.027344 101.800781 193.8125 103.789062 195.199219 C 103.789062 195.199219 143.703125 222.488281 156.800781 231.972656 C 169.542969 241.089844 181.4375 255.882812 181.4375 283.414062 Z M 181.4375 283.398438 " fill-opacity="1" fill-rule="nonzero"/></g><path fill="#1a72e8" d="M 229.738281 174.902344 L 229.738281 209.019531 C 222.246094 214.214844 215.308594 219.105469 211.082031 222.183594 C 200.273438 229.910156 192.363281 239.632812 187.46875 251.222656 C 182.578125 239.632812 174.667969 229.910156 163.804688 222.121094 C 159.578125 219.042969 152.632812 214.207031 145.203125 209.015625 L 145.203125 174.898438 C 145.203125 151.53125 164.105469 132.632812 187.46875 132.632812 C 210.835938 132.632812 229.738281 151.53125 229.738281 174.898438 Z M 229.738281 174.902344 " fill-opacity="1" fill-rule="nonzero"/><path fill="#1a72e8" d="M 154.683594 131.609375 C 141.585938 141.511719 133.128906 157.273438 133.128906 174.898438 L 133.128906 200.679688 C 121.59375 192.710938 111.453125 185.769531 110.605469 185.222656 C 106.617188 182.445312 101.851562 180.933594 96.894531 180.933594 C 89.710938 180.933594 83.1875 184.136719 78.78125 189.144531 C 78.058594 187.09375 67.1875 154.246094 59.394531 130.941406 C 59.09375 130.09375 58.792969 129.308594 58.371094 128.523438 C 65.976562 109.6875 84.457031 96.40625 105.949219 96.40625 C 128.652344 96.40625 147.917969 111.136719 154.671875 131.609375 Z M 154.683594 131.609375 " fill-opacity="1" fill-rule="nonzero"/><path fill="#1a72e8" d="M 320.003906 123.097656 C 318.070312 125.335938 316.617188 127.992188 315.59375 130.886719 C 307.746094 154.25 296.882812 187.097656 296.15625 189.152344 C 291.746094 184.140625 285.226562 180.9375 278.039062 180.9375 C 273.089844 180.9375 268.316406 182.445312 264.265625 185.285156 C 263.484375 185.832031 253.339844 192.710938 241.804688 200.679688 L 241.804688 174.898438 C 241.804688 159.5625 235.40625 145.671875 225.140625 135.769531 C 230.507812 113.191406 250.804688 96.40625 275.011719 96.40625 C 294.394531 96.40625 311.300781 107.210938 319.996094 123.09375 Z M 320.003906 123.097656 " fill-opacity="1" fill-rule="nonzero"/><path fill="#1a72e8" d="M 211.621094 84.335938 C 211.621094 71 200.808594 60.1875 187.46875 60.1875 C 174.132812 60.1875 163.320312 71 163.320312 84.335938 L 163.320312 96.410156 C 163.320312 109.75 174.132812 120.5625 187.46875 120.5625 C 200.808594 120.5625 211.621094 109.75 211.621094 96.410156 Z M 211.621094 84.335938 " fill-opacity="1" fill-rule="nonzero"/><g clip-path="url(#a3027f83a5)"><path fill="#1a72e8" d="M 133.128906 45.089844 C 133.128906 30.082031 120.964844 17.917969 105.957031 17.917969 C 90.949219 17.917969 78.785156 30.082031 78.785156 45.089844 L 78.785156 57.164062 C 78.785156 72.171875 90.949219 84.335938 105.957031 84.335938 C 120.964844 84.335938 133.128906 72.171875 133.128906 57.164062 Z M 133.128906 45.089844 " fill-opacity="1" fill-rule="nonzero"/></g><g clip-path="url(#095b100e92)"><path fill="#1a72e8" d="M 302.1875 45.089844 C 302.1875 30.082031 290.027344 17.917969 275.019531 17.917969 C 260.011719 17.917969 247.847656 30.082031 247.847656 45.089844 L 247.847656 57.164062 C 247.847656 72.171875 260.011719 84.335938 275.019531 84.335938 C 290.027344 84.335938 302.1875 72.171875 302.1875 57.164062 Z M 302.1875 45.089844 " fill-opacity="1" fill-rule="nonzero"/></g><path fill="#1a72e8" d="M 73.738281 330.878906 C 76.757812 324.84375 82.792969 312.761719 85.8125 306.726562 C 87.300781 303.757812 90.339844 301.699219 93.882812 301.699219 C 98.886719 301.699219 102.9375 305.753906 102.9375 310.753906 C 102.9375 312.210938 102.558594 313.558594 101.949219 314.785156 C 98.929688 320.820312 92.894531 332.902344 89.875 338.933594 C 88.386719 341.90625 85.347656 343.964844 81.804688 343.964844 C 76.800781 343.964844 72.75 339.910156 72.75 334.910156 C 72.75 333.453125 73.128906 332.101562 73.738281 330.878906 Z M 73.738281 330.878906 " fill-opacity="1" fill-rule="nonzero"/><g clip-path="url(#b7a6627b7d)"><path fill="#1a72e8" d="M 66.710938 280.566406 C 66.710938 275.5625 62.652344 271.511719 57.65625 271.511719 C 56.199219 271.511719 54.847656 271.890625 53.628906 272.5 C 47.597656 275.519531 35.515625 281.554688 29.480469 284.574219 C 26.511719 286.0625 24.449219 289.101562 24.449219 292.644531 C 24.449219 297.648438 28.507812 301.699219 33.503906 301.699219 C 34.960938 301.699219 36.3125 301.320312 37.53125 300.710938 C 43.566406 297.691406 55.644531 291.65625 61.679688 288.636719 C 64.652344 287.148438 66.710938 284.109375 66.710938 280.566406 Z M 66.710938 280.566406 " fill-opacity="1" fill-rule="nonzero"/></g><path fill="#1a72e8" d="M 301.210938 330.878906 C 298.1875 324.84375 292.15625 312.761719 289.132812 306.726562 C 287.644531 303.757812 284.605469 301.699219 281.066406 301.699219 C 276.058594 301.699219 272.011719 305.753906 272.011719 310.753906 C 272.011719 312.210938 272.386719 313.558594 272.996094 314.785156 C 276.015625 320.820312 282.050781 332.902344 285.070312 338.933594 C 286.558594 341.90625 289.597656 343.964844 293.140625 343.964844 C 298.144531 343.964844 302.195312 339.910156 302.195312 334.910156 C 302.195312 333.453125 301.816406 332.101562 301.210938 330.878906 Z M 301.210938 330.878906 " fill-opacity="1" fill-rule="nonzero"/><g clip-path="url(#3e8853df1a)"><path fill="#1a72e8" d="M 308.230469 280.566406 C 308.230469 275.5625 312.285156 271.511719 317.285156 271.511719 C 318.742188 271.511719 320.089844 271.890625 321.308594 272.5 C 327.34375 275.519531 339.425781 281.554688 345.460938 284.574219 C 348.429688 286.0625 350.488281 289.101562 350.488281 292.644531 C 350.488281 297.648438 346.433594 301.699219 341.433594 301.699219 C 339.976562 301.699219 338.628906 301.320312 337.410156 300.710938 C 331.375 297.691406 319.292969 291.65625 313.257812 288.636719 C 310.289062 287.148438 308.230469 284.109375 308.230469 280.566406 Z M 308.230469 280.566406 " fill-opacity="1" fill-rule="nonzero"/></g></svg>