<svg xmlns="http://www.w3.org/2000/svg" xmlns:xlink="http://www.w3.org/1999/xlink" width="500" zoomAndPan="magnify" viewBox="0 0 375 374.999991" height="500" preserveAspectRatio="xMidYMid meet" version="1.0"><defs><clipPath id="93f2eec22f"><path d="M 183 15.222656 L 265 15.222656 L 265 137 L 183 137 Z M 183 15.222656 " clip-rule="nonzero"/></clipPath><clipPath id="354f1a5352"><path d="M 55.707031 150 L 138 150 L 138 272 L 55.707031 272 Z M 55.707031 150 " clip-rule="nonzero"/></clipPath><clipPath id="f9696f2926"><path d="M 250 328 L 306 328 L 306 359.472656 L 250 359.472656 Z M 250 328 " clip-rule="nonzero"/></clipPath><clipPath id="66013f18d4"><path d="M 237 213 L 318.957031 213 L 318.957031 335 L 237 335 Z M 237 213 " clip-rule="nonzero"/></clipPath></defs><path fill="#1a72e8" d="M 217.566406 159.144531 C 219.183594 157.328125 218.980469 154.5 217.164062 152.683594 C 215.347656 151.070312 212.320312 151.273438 210.707031 153.089844 L 111.410156 271.757812 C 109.796875 273.574219 109.996094 276.601562 111.8125 278.21875 C 113.832031 279.832031 116.65625 279.628906 118.273438 277.8125 Z M 117.667969 283.261719 C 115.246094 282.457031 112.824219 283.667969 111.8125 286.089844 C 111.007812 288.308594 112.21875 290.933594 114.640625 291.738281 L 254.097656 341.992188 C 256.519531 342.800781 259.144531 341.589844 259.949219 339.371094 C 260.757812 336.949219 259.546875 334.324219 257.125 333.515625 Z M 117.667969 283.261719 " fill-opacity="1" fill-rule="nonzero"/><path fill="#1a72e8" d="M 207.878906 130.886719 C 206.0625 131.695312 204.246094 132.703125 202.835938 133.714844 C 198.796875 136.742188 196.375 140.574219 196.375 144.8125 C 196.375 150.0625 200.007812 154.703125 205.660156 157.730469 C 210.300781 160.355469 216.960938 161.96875 224.027344 161.96875 C 231.089844 161.96875 237.75 160.355469 242.59375 157.730469 C 248.246094 154.703125 251.675781 150.0625 251.675781 144.8125 C 251.675781 140.574219 249.253906 136.742188 245.21875 133.714844 C 243.804688 132.703125 241.988281 131.695312 240.171875 130.886719 C 239.164062 132.703125 238.152344 134.519531 237.144531 136.335938 L 236.136719 138.152344 C 232.703125 144.8125 224.429688 147.4375 217.566406 144.007812 C 214.945312 142.59375 212.925781 140.375 211.714844 137.75 C 210.503906 135.328125 209.292969 133.109375 207.878906 130.886719 Z M 207.878906 130.886719 " fill-opacity="1" fill-rule="nonzero"/><g clip-path="url(#93f2eec22f)"><path fill="#1a72e8" d="M 264.996094 56.214844 C 264.996094 44.914062 260.355469 34.621094 252.886719 27.355469 C 245.621094 19.886719 235.328125 15.246094 224.027344 15.246094 C 212.722656 15.246094 202.429688 19.886719 195.164062 27.355469 C 187.699219 34.621094 183.054688 44.914062 183.054688 56.214844 C 183.054688 68.121094 198.796875 96.578125 210.503906 116.960938 C 211.109375 118.171875 211.917969 119.382812 212.523438 120.59375 C 215.550781 125.84375 218.171875 130.484375 219.789062 133.714844 C 220.191406 134.519531 221 135.328125 222.007812 135.933594 C 224.226562 136.941406 226.851562 136.136719 228.0625 133.914062 C 229.878906 130.6875 232.503906 126.042969 235.53125 120.59375 C 236.136719 119.382812 236.941406 118.171875 237.546875 116.960938 C 249.253906 96.578125 264.996094 68.121094 264.996094 56.214844 Z M 209.695312 41.683594 C 213.328125 38.050781 218.375 35.832031 224.027344 35.832031 C 235.328125 35.832031 244.410156 44.914062 244.410156 56.011719 C 244.410156 61.664062 241.988281 66.710938 238.355469 70.34375 C 234.722656 73.976562 229.675781 76.398438 224.027344 76.398438 C 212.925781 76.398438 203.640625 67.316406 203.640625 56.011719 C 203.640625 50.363281 206.0625 45.316406 209.695312 41.683594 Z M 209.695312 41.683594 " fill-opacity="1" fill-rule="evenodd"/></g><path fill="#1a72e8" d="M 80.53125 266.308594 C 78.511719 267.117188 76.898438 268.125 75.285156 269.136719 C 71.449219 272.164062 69.027344 275.996094 69.027344 280.234375 C 69.027344 285.484375 72.457031 290.125 78.109375 293.152344 C 82.953125 295.777344 89.410156 297.390625 96.675781 297.390625 C 103.742188 297.390625 110.199219 295.777344 115.042969 293.152344 C 120.695312 290.125 124.125 285.484375 124.125 280.234375 C 124.125 275.996094 121.703125 272.164062 117.867188 269.136719 C 116.253906 268.125 114.640625 267.117188 112.621094 266.308594 C 111.613281 268.125 110.601562 269.941406 109.59375 271.757812 L 108.585938 273.574219 C 105.152344 280.234375 96.878906 282.859375 90.21875 279.429688 C 87.59375 278.015625 85.578125 275.796875 84.164062 273.171875 C 83.15625 270.75 81.742188 268.53125 80.53125 266.308594 Z M 80.53125 266.308594 " fill-opacity="1" fill-rule="nonzero"/><g clip-path="url(#354f1a5352)"><path fill="#1a72e8" d="M 137.445312 191.636719 C 137.445312 180.335938 133.003906 170.042969 125.539062 162.777344 C 118.070312 155.308594 107.980469 150.667969 96.675781 150.667969 C 85.375 150.667969 75.082031 155.308594 67.613281 162.777344 C 60.148438 170.042969 55.707031 180.335938 55.707031 191.636719 C 55.707031 203.542969 71.449219 232 82.953125 252.382812 C 83.761719 253.59375 84.367188 254.804688 85.171875 256.015625 C 88 261.265625 90.621094 265.90625 92.4375 269.136719 C 92.84375 269.941406 93.449219 270.75 94.457031 271.355469 C 96.675781 272.363281 99.503906 271.558594 100.511719 269.335938 C 102.328125 266.109375 104.953125 261.464844 107.980469 256.015625 C 108.785156 254.804688 109.390625 253.59375 110.199219 252.382812 C 121.703125 232 137.445312 203.542969 137.445312 191.636719 Z M 82.144531 177.105469 C 85.980469 173.472656 91.027344 171.253906 96.675781 171.253906 C 107.777344 171.253906 116.859375 180.335938 116.859375 191.433594 C 116.859375 197.085938 114.640625 202.132812 111.007812 205.765625 C 107.171875 209.398438 102.125 211.820312 96.675781 211.820312 C 85.375 211.820312 76.292969 202.738281 76.292969 191.433594 C 76.292969 185.785156 78.511719 180.738281 82.144531 177.105469 Z M 82.144531 177.105469 " fill-opacity="1" fill-rule="evenodd"/></g><g clip-path="url(#f9696f2926)"><path fill="#1a72e8" d="M 262.171875 328.671875 C 260.355469 329.480469 258.539062 330.488281 257.125 331.5 C 253.089844 334.527344 250.667969 338.359375 250.667969 342.597656 C 250.667969 347.847656 254.097656 352.488281 259.75 355.515625 C 264.59375 358.140625 271.253906 359.753906 278.316406 359.753906 C 285.378906 359.753906 291.835938 358.140625 296.679688 355.515625 C 302.332031 352.488281 305.964844 347.847656 305.964844 342.597656 C 305.964844 338.359375 303.542969 334.527344 299.507812 331.5 C 298.09375 330.488281 296.277344 329.480469 294.460938 328.671875 C 293.453125 330.488281 292.242188 332.304688 291.230469 334.121094 L 290.425781 335.9375 C 286.792969 342.800781 278.515625 345.222656 271.859375 341.792969 C 269.234375 340.378906 267.214844 338.160156 266.003906 335.535156 C 264.792969 333.316406 263.582031 330.894531 262.171875 328.671875 Z M 262.171875 328.671875 " fill-opacity="1" fill-rule="nonzero"/></g><g clip-path="url(#66013f18d4)"><path fill="#1a72e8" d="M 319.285156 254 C 319.285156 242.699219 314.644531 232.605469 307.175781 225.140625 C 299.910156 217.671875 289.617188 213.03125 278.316406 213.03125 C 267.015625 213.03125 256.722656 217.671875 249.253906 225.140625 C 241.988281 232.605469 237.347656 242.699219 237.347656 254 C 237.347656 265.90625 253.089844 294.363281 264.59375 314.746094 C 265.398438 315.957031 266.207031 317.167969 266.8125 318.378906 C 269.839844 323.628906 272.464844 328.269531 274.078125 331.5 C 274.480469 332.507812 275.289062 333.113281 276.09375 333.71875 C 278.316406 334.929688 281.140625 333.921875 282.351562 331.699219 C 283.964844 328.472656 286.589844 323.828125 289.820312 318.378906 C 290.425781 317.167969 291.230469 315.957031 291.835938 314.746094 C 303.339844 294.363281 319.285156 265.90625 319.285156 254 Z M 263.988281 239.46875 C 267.621094 235.835938 272.664062 233.617188 278.316406 233.617188 C 289.414062 233.617188 298.496094 242.699219 298.496094 253.796875 C 298.496094 259.449219 296.277344 264.492188 292.644531 268.125 C 289.011719 271.960938 283.964844 274.179688 278.316406 274.179688 C 267.015625 274.179688 257.933594 265.097656 257.933594 253.796875 C 257.933594 248.347656 260.152344 243.101562 263.988281 239.46875 Z M 263.988281 239.46875 " fill-opacity="1" fill-rule="evenodd"/></g></svg>